<?xml version="1.0" standalone="no"?>
<!DOCTYPE svg PUBLIC "-//W3C//DTD SVG 20010904//EN"
 "http://www.w3.org/TR/2001/REC-SVG-20010904/DTD/svg10.dtd">
<svg version="1.0" xmlns="http://www.w3.org/2000/svg"
 width="700.000000pt" height="700.000000pt" viewBox="0 0 700.000000 700.000000"
 preserveAspectRatio="xMidYMid meet">
<metadata>
Created by potrace 1.11, written by Peter Selinger 2001-2013
</metadata>
<g transform="translate(0.000000,700.000000) scale(0.100000,-0.100000)"
fill="#000000" stroke="none">
<path d="M642 6989 c-331 -43 -590 -306 -632 -643 -14 -113 -14 -5581 0 -5695
42 -335 306 -598 640 -640 118 -15 5582 -15 5700 0 339 42 601 309 640 652 8
63 10 973 8 2902 -3 2662 -4 2813 -21 2869 -45 151 -102 251 -197 346 -95 95
-195 152 -346 197 -56 17 -205 18 -2894 19 -1559 1 -2864 -2 -2898 -7z m1170
-1187 c297 -80 522 -266 649 -536 49 -105 75 -202 94 -351 30 -239 66 -369
141 -515 109 -213 296 -377 544 -478 218 -89 300 -92 480 -17 176 74 313 161
417 267 96 96 135 152 195 275 56 117 92 246 108 394 27 250 63 380 140 511
230 387 732 568 1180 426 195 -62 374 -195 497 -369 281 -397 228 -1003 -116
-1321 -167 -155 -373 -240 -665 -273 -77 -9 -172 -23 -211 -31 -371 -78 -615
-303 -709 -652 -23 -84 -31 -137 -56 -358 -41 -363 -214 -622 -515 -772 -337
-168 -746 -157 -1035 26 -131 83 -262 222 -328 350 -76 146 -132 345 -132 466
0 29 -7 95 -16 146 -68 395 -298 672 -649 783 -103 32 -170 44 -325 57 -288
24 -475 105 -650 280 -113 113 -177 215 -226 358 -110 320 -74 656 99 920 130
200 343 356 564 411 117 30 116 30 288 26 123 -2 178 -7 237 -23z m-384 -3188
c430 -88 687 -532 547 -943 -100 -295 -384 -501 -689 -501 -124 0 -214 21
-321 74 -195 96 -334 278 -380 497 -22 101 -19 259 5 353 68 268 299 479 572
525 85 14 183 12 266 -5z m4487 -14 c245 -77 435 -272 500 -515 106 -400 -159
-818 -575 -906 -83 -18 -270 -6 -350 21 -240 83 -402 253 -472 495 -19 67 -23
103 -23 220 1 127 3 148 29 220 90 259 296 436 564 485 78 15 248 4 327 -20z"/>
</g>
</svg>
