<?xml version="1.0" encoding="utf-8"?>
<!-- Generator: Adobe Illustrator 24.1.0, SVG Export Plug-In . SVG Version: 6.00 Build 0)  -->
<svg version="1.1" id="Layer_1" xmlns="http://www.w3.org/2000/svg" xmlns:xlink="http://www.w3.org/1999/xlink" x="0px" y="0px"
	 viewBox="0 0 400 400" style="enable-background:new 0 0 400 400;" xml:space="preserve">
<style type="text/css">
	.st0{fill-rule:evenodd;clip-rule:evenodd;fill:#171923;}
	.st1{fill-rule:evenodd;clip-rule:evenodd;fill:url(#SVGID_1_);}
</style>
<path class="st0" d="M350,400H50c-27.6,0-50-22.4-50-50V50C0,22.4,22.4,0,50,0h300c27.6,0,50,22.4,50,50v300
	C400,377.6,377.6,400,350,400z"/>
<linearGradient id="SVGID_1_" gradientUnits="userSpaceOnUse" x1="281.9877" y1="320.8717" x2="125.3692" y2="49.6006">
	<stop  offset="0" style="stop-color:#9F7AEA"/>
	<stop  offset="0.1993" style="stop-color:#A778E3"/>
	<stop  offset="0.5131" style="stop-color:#BE71CF"/>
	<stop  offset="0.9002" style="stop-color:#E267AF"/>
	<stop  offset="1" style="stop-color:#ED64A6"/>
</linearGradient>
<path class="st1" d="M89.9,72.2C69,72.2,52,89.1,52,110v137.7c0,20.9,17,37.9,37.9,37.9h79.7l-10.3,20.7h-28
	c-5.7,0-10.3,4.6-10.3,10.3c0,5.7,4.6,10.3,10.3,10.3h34.2c0.1,0,0.3,0,0.4,0h68.4c0.1,0,0.3,0,0.4,0h34.2c5.7,0,10.3-4.6,10.3-10.3
	c0-5.7-4.6-10.3-10.3-10.3h-28l-10.3-20.7h79.7c20.9,0,37.9-17,37.9-37.9V110c0-20.9-17-37.9-37.9-37.9H89.9z M217.7,306.2
	l-10.3-20.7h-14.8l-10.3,20.7H217.7z M213.5,264.9c0.1,0,0.3,0,0.4,0h96.2c9.5,0,17.2-7.7,17.2-17.2V110c0-9.5-7.7-17.2-17.2-17.2
	H89.9c-9.5,0-17.2,7.7-17.2,17.2v137.7c0,9.5,7.7,17.2,17.2,17.2H186c0.1,0,0.3,0,0.4,0H213.5z"/>
</svg>
