<?xml version="1.0" encoding="utf-8"?>
<!-- Generator: Adobe Illustrator 24.1.0, SVG Export Plug-In . SVG Version: 6.00 Build 0)  -->
<svg version="1.1" id="Layer_1" xmlns="http://www.w3.org/2000/svg" xmlns:xlink="http://www.w3.org/1999/xlink" x="0px" y="0px"
	 viewBox="0 0 400 400" style="enable-background:new 0 0 400 400;" xml:space="preserve">
<style type="text/css">
	.st0{fill-rule:evenodd;clip-rule:evenodd;fill:#171923;}
	.st1{fill:url(#SVGID_1_);}
	.st2{fill:#171923;}
	.st3{fill:#171923;stroke:url(#SVGID_2_);stroke-width:2;stroke-miterlimit:10;}
</style>
<path class="st0" d="M349.8,400h-300c-27.6,0-50-22.4-50-50V50c0-27.6,22.4-50,50-50h300c27.6,0,50,22.4,50,50v300
	C399.8,377.6,377.5,400,349.8,400z"/>
<g>
	<linearGradient id="SVGID_1_" gradientUnits="userSpaceOnUse" x1="63.2266" y1="281.5922" x2="337.9868" y2="122.9593">
		<stop  offset="0" style="stop-color:#4299E1"/>
		<stop  offset="1" style="stop-color:#0BC5EA"/>
	</linearGradient>
	<path class="st1" d="M77.7,95.2v209.6c0,15.5,54.7,28,122.1,28s122.1-12.5,122.1-28V95.2C322,95.2,77.7,95.2,77.7,95.2z"/>
	<g>
		<path class="st2" d="M199.8,185c-67.5,0-122.1-12.5-122.1-28v8.2c0,15.5,54.7,28,122.1,28s122.1-12.5,122.1-28v-8.2
			C322,172.4,267.3,185,199.8,185z"/>
		<path class="st2" d="M199.8,254.8c-67.5,0-122.1-12.5-122.1-28v8.2c0,15.5,54.7,28,122.1,28s122.1-12.5,122.1-28v-8.2
			C322,242.3,267.3,254.8,199.8,254.8z"/>
		<path class="st2" d="M199.8,325.7c-67.5,0-122.1-12.5-122.1-28v8.2c0,15.5,54.7,28,122.1,28s122.1-12.5,122.1-28v-8.2
			C322,313.1,267.3,325.7,199.8,325.7z"/>
	</g>
	<linearGradient id="SVGID_2_" gradientUnits="userSpaceOnUse" x1="76.708" y1="95.2484" x2="322.9863" y2="95.2484">
		<stop  offset="0" style="stop-color:#4299E1"/>
		<stop  offset="1" style="stop-color:#0BC5EA"/>
	</linearGradient>
	<ellipse class="st3" cx="199.8" cy="95.2" rx="122.1" ry="28"/>
	<circle class="st2" cx="274" cy="151.5" r="11.6"/>
	<path class="st2" d="M199.8,162.4c-33.5,0-64.8-3-88.3-8.5c-2.2-0.5-3.5-2.7-3-4.8c0.5-2.2,2.7-3.5,4.8-3
		c22.9,5.4,53.6,8.3,86.5,8.3c13.8,0,27.3-0.5,40.1-1.6c2.2-0.2,4.1,1.5,4.3,3.7c0.2,2.2-1.5,4.1-3.7,4.3
		C227.5,161.9,213.8,162.4,199.8,162.4z"/>
	<circle class="st2" cx="274" cy="220.4" r="11.6"/>
	<path class="st2" d="M199.8,231.4c-33.5,0-64.8-3-88.3-8.5c-2.2-0.5-3.5-2.7-3-4.8c0.5-2.2,2.7-3.5,4.8-3
		c22.9,5.4,53.6,8.3,86.5,8.3c13.8,0,27.3-0.5,40.1-1.6c2.2-0.2,4.1,1.5,4.3,3.7c0.2,2.2-1.5,4.1-3.7,4.3
		C227.5,230.8,213.8,231.4,199.8,231.4z"/>
	<circle class="st2" cx="274" cy="289.5" r="11.6"/>
	<path class="st2" d="M199.8,300.4c-33.5,0-64.8-3-88.3-8.5c-2.2-0.5-3.5-2.7-3-4.8c0.5-2.2,2.7-3.5,4.8-3
		c22.9,5.4,53.6,8.3,86.5,8.3c13.8,0,27.3-0.5,40.1-1.6c2.2-0.2,4.1,1.5,4.3,3.7c0.2,2.2-1.5,4.1-3.7,4.3
		C227.5,299.9,213.8,300.4,199.8,300.4z"/>
</g>
</svg>
