<?xml version="1.0" encoding="utf-8"?>
<!-- Generator: Adobe Illustrator 24.1.0, SVG Export Plug-In . SVG Version: 6.00 Build 0)  -->
<svg version="1.1" id="Layer_1" xmlns="http://www.w3.org/2000/svg" xmlns:xlink="http://www.w3.org/1999/xlink" x="0px" y="0px"
	 viewBox="0 0 400 400" style="enable-background:new 0 0 400 400;" xml:space="preserve">
<style type="text/css">
	.st0{fill-rule:evenodd;clip-rule:evenodd;fill:#171923;}
	.st1{fill:url(#SVGID_1_);}
	.st2{fill:#171923;}
</style>
<path class="st0" d="M349.3,401.8h-300c-27.6,0-50-22.4-50-50v-300c0-27.6,22.4-50,50-50h300c27.6,0,50,22.4,50,50v300
	C399.3,379.4,376.9,401.8,349.3,401.8z"/>
<g>
	<linearGradient id="SVGID_1_" gradientUnits="userSpaceOnUse" x1="291.6076" y1="361.6069" x2="107.0443" y2="41.9339">
		<stop  offset="0" style="stop-color:#38B2AC"/>
		<stop  offset="0.2666" style="stop-color:#3BB3A4"/>
		<stop  offset="0.6851" style="stop-color:#41B78D"/>
		<stop  offset="1" style="stop-color:#48BB78"/>
	</linearGradient>
	<path class="st1" d="M54.4,162.4h289.8c4.2,0,7.7,3.4,7.7,7.7v63.3c0,4.2-3.4,7.7-7.7,7.7H54.4c-4.2,0-7.7-3.4-7.7-7.7v-63.3
		C46.7,165.9,50.2,162.4,54.4,162.4z M46.7,81.2v63.3c0,4.2,3.4,7.7,7.7,7.7h289.8c4.2,0,7.7-3.4,7.7-7.7V81.2
		c0-4.2-3.4-7.7-7.7-7.7H54.4C50.2,73.5,46.7,76.9,46.7,81.2z M46.7,259v63.3c0,4.2,3.4,7.7,7.7,7.7h289.8c4.2,0,7.7-3.4,7.7-7.7
		V259c0-4.2-3.4-7.7-7.7-7.7H54.4C50.2,251.3,46.7,254.8,46.7,259z"/>
	<circle class="st2" cx="78.5" cy="202.9" r="11.4"/>
	<circle class="st2" cx="119.3" cy="202.9" r="11.4"/>
	<circle class="st2" cx="78.5" cy="114" r="11.4"/>
	<circle class="st2" cx="119.3" cy="114" r="11.4"/>
	<circle class="st2" cx="78.5" cy="291.8" r="11.4"/>
	<circle class="st2" cx="119.3" cy="291.8" r="11.4"/>
</g>
</svg>
